<svg xmlns="http://www.w3.org/2000/svg" xmlns:svg="http://www.w3.org/2000/svg" xmlns:xlink="http://www.w3.org/1999/xlink" id="svg2" width="744.094" height="1052.362"><metadata id="metadata7"/><g id="layer1"><rect style="opacity:1;fill:#cccccf;fill-opacity:1;stroke:none;stroke-width:2.49474001000000012;stroke-linecap:round;stroke-linejoin:round;stroke-miterlimit:4;stroke-dasharray:none;stroke-opacity:1" id="rect3498" width="742.291" height="1050.148" x=".997" y="1.217"/><g id="g3293" transform="translate(-261.42857,-147.14286)"><rect id="rect2391" width="207.017" height="62.014" x="275.777" y="160.641" rx="20" ry="20" style="opacity:1;fill:#980101;fill-opacity:1;stroke:none;stroke-width:99.74900055;stroke-linecap:round;stroke-linejoin:miter;stroke-miterlimit:4;stroke-dasharray:none;stroke-opacity:.91747568"/><flowRoot transform="matrix(1.3038888,0,0,1.3038888,1250.7826,62.837951)" style="font-size:72px;font-style:normal;font-variant:normal;font-weight:400;font-stretch:normal;text-align:start;line-height:125%;writing-mode:lr-tb;text-anchor:start;fill:#fff;fill-opacity:1;stroke:none;stroke-width:1px;stroke-linecap:butt;stroke-linejoin:miter;stroke-opacity:1;font-family:Dyuthi;-inkscape-font-specification:Dyuthi" id="flowRoot2383" xml:space="preserve"><flowRegion id="flowRegion2385"><rect style="font-size:72px;font-style:normal;font-variant:normal;font-weight:400;font-stretch:normal;text-align:start;line-height:125%;writing-mode:lr-tb;text-anchor:start;fill:#fff;fill-opacity:1;font-family:Dyuthi;-inkscape-font-specification:Dyuthi" id="rect2387" width="919.265" height="360.228" x="-741.431" y="52.843"/></flowRegion><flowPara id="flowPara2389">libre.fm</flowPara></flowRoot></g><text xml:space="preserve" style="font-size:24px;font-style:normal;font-variant:normal;font-weight:400;font-stretch:normal;fill:#000;fill-opacity:1;stroke:none;stroke-width:1px;stroke-linecap:butt;stroke-linejoin:miter;stroke-opacity:1;font-family:Liberation Sans;-inkscape-font-specification:Liberation Sans" id="text3300" x="662.143" y="52.219"><tspan id="tspan3302" x="662.143" y="52.219">mattl</tspan></text><image id="image3494" width="64" height="64" x="583" y="14.648" xlink:href="/home/mattl/Desktop/f48158ca7aeaac49277e614bb2183005.jpeg"/><rect style="opacity:1;fill:#fff;fill-opacity:1;stroke:none;stroke-width:.5;stroke-linecap:round;stroke-linejoin:round;stroke-miterlimit:4;stroke-dasharray:none;stroke-opacity:1" id="rect4270" width="705" height="587.857" x="17.143" y="91.505" rx="20" ry="20"/><text xml:space="preserve" style="font-size:24px;font-style:normal;font-variant:normal;font-weight:400;font-stretch:normal;fill:#000;fill-opacity:1;stroke:none;stroke-width:1px;stroke-linecap:butt;stroke-linejoin:miter;stroke-opacity:1;font-family:Liberation Sans;-inkscape-font-specification:Liberation Sans" id="text4272" x="42.143" y="134.505"><tspan id="tspan4274" x="42.143" y="134.505" style="font-weight:700">band manager</tspan></text><rect style="opacity:1;fill:#cccccf;fill-opacity:1;stroke:none;stroke-width:.5;stroke-linecap:round;stroke-linejoin:round;stroke-miterlimit:4;stroke-dasharray:none;stroke-opacity:1" id="rect4280" width="298.571" height="85.714" x="32.143" y="165.219" rx="20" ry="20"/><text xml:space="preserve" style="font-size:24px;font-style:normal;font-variant:normal;font-weight:400;font-stretch:normal;fill:#000;fill-opacity:1;stroke:none;stroke-width:1px;stroke-linecap:butt;stroke-linejoin:miter;stroke-opacity:1;font-family:Liberation Sans;-inkscape-font-specification:Liberation Sans" id="text4276" x="46.429" y="196.648"><tspan id="tspan4278" x="46.429" y="196.648">you are managing:</tspan></text><text xml:space="preserve" style="font-size:24px;font-style:normal;font-variant:normal;font-weight:400;font-stretch:normal;fill:#036;fill-opacity:1;stroke:none;stroke-width:1px;stroke-linecap:butt;stroke-linejoin:miter;stroke-opacity:1;font-family:Liberation Sans;-inkscape-font-specification:Liberation Sans" id="text4282" x="82.857" y="231.648"><tspan id="tspan4284" x="82.857" y="231.648">* furny</tspan></text><g id="g4294" transform="matrix(0.7420814,0,0,0.7420814,181.37201,23.513259)"><path id="path4292" d="M 480.16216,309.86201 C 481.89678,306.656 483.50421,303.38464 485.21937,300.16838 C 487.64144,295.25989 490.66194,290.6748 493.47638,285.98569 C 495.75205,282.09798 498.34117,278.37534 501.348,275.01699 C 503.83859,272.50124 506.38535,270.07058 509.39664,268.18893 C 511.60691,268.75996 513.52589,265.05775 515.96937,264.9152 C 516.50696,264.88384 517.0429,265.01144 517.57472,265.09601 C 519.75667,265.44296 521.61977,266.3782 523.62075,267.27795 C 529.39032,269.99417 535.45812,271.90756 541.55076,273.73606 C 547.39544,275.18162 553.33335,276.26745 559.31299,276.96956 C 561.68842,277.21997 562.74696,277.4469 565.0112,276.55576 C 565.74638,276.26642 566.41289,275.79621 567.17534,275.5891 C 567.71381,275.44283 565.28799,276.75205 565.69474,276.37009 C 566.46419,275.64753 567.42114,275.15515 568.28434,274.54768 C 570.88766,272.45204 573.7249,270.63204 576.25547,268.44377 C 578.88449,266.17036 581.17748,263.51051 583.5127,260.94818 C 587.622,256.23997 591.69942,251.51056 595.93183,246.91122 C 597.20914,245.81904 598.10801,244.32919 599.38116,243.23105 C 601.1882,241.6724 605.69058,240.06282 606.99081,239.82861 C 607.66657,239.70689 610.59109,241.69039 611.01334,241.95636 C 614.14739,244.09866 616.70553,246.93275 619.89726,248.99541 C 622.45694,250.45591 623.61454,249.9563 626.14904,248.67538 C 626.71451,248.3896 625.00808,249.22663 624.4376,249.50225 C 631.69164,244.4135 637.65617,237.83085 643.24758,231.02239 C 647.12062,226.07624 650.0602,220.49828 652.26151,214.62759 C 653.50909,211.30039 654.1229,208.97517 655.12362,205.56476 C 657.17223,197.82456 658.17912,189.8439 659.14298,181.907 C 659.57021,178.78552 659.92355,175.65441 660.39295,172.53902 L 664.73082,170.41363 C 664.2146,173.54217 663.81999,176.6891 663.35585,179.8258 C 662.33731,187.80049 661.30344,195.82324 659.25196,203.60674 C 656.61203,212.71805 653.45925,221.73207 647.44003,229.23606 C 641.91537,236.04774 635.99114,242.60148 628.85937,247.78086 C 626.69896,249.07757 624.5743,250.4358 622.37814,251.671 C 619.97171,253.02447 618.09465,253.06632 615.78609,251.62815 C 612.6683,249.49214 610.12586,246.663 606.98582,244.55555 C 606.33999,244.16681 605.72779,243.71574 605.04834,243.38932 C 604.4206,243.08775 602.98161,243.36956 603.08298,242.68056 C 603.24298,241.59311 604.95174,241.38259 605.485,240.42146 C 605.799,239.85553 604.30455,240.98107 603.8006,241.38715 C 602.47694,242.45372 601.61844,244.02737 600.28966,245.08584 C 596.03067,249.6807 591.95715,254.43256 587.82313,259.13838 C 585.50184,261.70404 583.22836,264.40451 580.62353,266.69458 C 578.11128,268.90325 575.2443,270.68491 572.66999,272.81572 C 568.70179,275.68419 569.34426,275.34833 563.42312,278.55757 C 562.46251,279.07822 560.41569,279.86348 559.25282,279.99892 C 558.45,280.09243 556.14271,279.8179 555.39371,279.74372 C 549.43257,278.96175 543.51696,277.82462 537.68149,276.37781 C 531.5637,274.52769 525.45744,272.62597 519.64948,269.91984 C 517.6848,269.08136 515.78094,268.13588 513.62537,267.92668 C 513.12017,267.87764 512.60565,267.83665 512.10279,267.90567 C 511.69613,267.96148 510.61441,268.55249 510.93485,268.29596 C 511.85512,267.55922 512.93921,267.05448 513.94139,266.43375 C 510.86827,268.23235 508.32619,270.64143 505.81533,273.14293 C 502.73077,276.45126 500.11534,280.18014 497.81033,284.06636 C 496.76729,285.78219 495.76884,287.52487 494.72559,289.24058 C 492.94373,292.17099 490.99126,295.01983 489.63365,298.18632 C 487.92251,301.36195 486.33523,304.59966 484.6362,307.78101 L 480.16216,309.86201 z" style="opacity:1;fill:#d40000;fill-opacity:1;stroke:none;stroke-width:5;stroke-linecap:round;stroke-linejoin:round;stroke-miterlimit:4;stroke-dasharray:none;stroke-opacity:1"/><path id="path4290" d="M 481.42857,157.36218 L 481.42857,310.21932 L 478.57143,310.21932 L 700.71429,310.21932" style="fill:none;fill-rule:evenodd;stroke:#000;stroke-width:5;stroke-linecap:butt;stroke-linejoin:miter;stroke-miterlimit:4;stroke-dasharray:none;stroke-opacity:1"/></g><text xml:space="preserve" style="font-size:24px;font-style:normal;font-variant:normal;font-weight:400;font-stretch:normal;fill:#000;fill-opacity:1;stroke:none;stroke-width:1px;stroke-linecap:butt;stroke-linejoin:miter;stroke-opacity:1;font-family:Liberation Sans;-inkscape-font-specification:Liberation Sans" id="text4298" x="38.571" y="296.648"><tspan id="tspan4300" x="38.571" y="296.648" style="font-weight:700">your fans (36)</tspan></text><image id="image4302" width="36.143" height="36.143" x="35.857" y="315.362" xlink:href="/home/mattl/Desktop/f48158ca7aeaac49277e614bb2183005.jpeg"/><image id="image4304" width="36.143" height="36.143" x="75.857" y="315.362" xlink:href="/home/mattl/Desktop/f48158ca7aeaac49277e614bb2183005.jpeg"/><image id="image4306" width="36.143" height="36.143" x="115.857" y="315.362" xlink:href="/home/mattl/Desktop/f48158ca7aeaac49277e614bb2183005.jpeg"/><image id="image4308" width="36.143" height="36.143" x="155.857" y="315.362" xlink:href="/home/mattl/Desktop/f48158ca7aeaac49277e614bb2183005.jpeg"/><image id="image4310" width="36.143" height="36.143" x="195.857" y="315.362" xlink:href="/home/mattl/Desktop/f48158ca7aeaac49277e614bb2183005.jpeg"/><image id="image4312" width="36.143" height="36.143" x="235.857" y="315.362" xlink:href="/home/mattl/Desktop/f48158ca7aeaac49277e614bb2183005.jpeg"/><image id="image4314" width="36.143" height="36.143" x="275.857" y="315.362" xlink:href="/home/mattl/Desktop/f48158ca7aeaac49277e614bb2183005.jpeg"/><image id="image4316" width="36.143" height="36.143" x="35.857" y="355.362" xlink:href="/home/mattl/Desktop/f48158ca7aeaac49277e614bb2183005.jpeg"/><image id="image4318" width="36.143" height="36.143" x="75.857" y="355.362" xlink:href="/home/mattl/Desktop/f48158ca7aeaac49277e614bb2183005.jpeg"/><image id="image4320" width="36.143" height="36.143" x="115.857" y="355.362" xlink:href="/home/mattl/Desktop/f48158ca7aeaac49277e614bb2183005.jpeg"/><image id="image4322" width="36.143" height="36.143" x="155.857" y="355.362" xlink:href="/home/mattl/Desktop/f48158ca7aeaac49277e614bb2183005.jpeg"/><image id="image4324" width="36.143" height="36.143" x="195.857" y="355.362" xlink:href="/home/mattl/Desktop/f48158ca7aeaac49277e614bb2183005.jpeg"/><image id="image4326" width="36.143" height="36.143" x="235.857" y="355.362" xlink:href="/home/mattl/Desktop/f48158ca7aeaac49277e614bb2183005.jpeg"/><image id="image4328" width="36.143" height="36.143" x="275.857" y="355.362" xlink:href="/home/mattl/Desktop/f48158ca7aeaac49277e614bb2183005.jpeg"/><image id="image4330" width="36.143" height="36.143" x="35.857" y="395.362" xlink:href="/home/mattl/Desktop/f48158ca7aeaac49277e614bb2183005.jpeg"/><image id="image4332" width="36.143" height="36.143" x="75.857" y="395.362" xlink:href="/home/mattl/Desktop/f48158ca7aeaac49277e614bb2183005.jpeg"/><image id="image4334" width="36.143" height="36.143" x="115.857" y="395.362" xlink:href="/home/mattl/Desktop/f48158ca7aeaac49277e614bb2183005.jpeg"/><image id="image4336" width="36.143" height="36.143" x="155.857" y="395.362" xlink:href="/home/mattl/Desktop/f48158ca7aeaac49277e614bb2183005.jpeg"/><image id="image4338" width="36.143" height="36.143" x="195.857" y="395.362" xlink:href="/home/mattl/Desktop/f48158ca7aeaac49277e614bb2183005.jpeg"/><image id="image4340" width="36.143" height="36.143" x="235.857" y="395.362" xlink:href="/home/mattl/Desktop/f48158ca7aeaac49277e614bb2183005.jpeg"/><image id="image4342" width="36.143" height="36.143" x="275.857" y="395.362" xlink:href="/home/mattl/Desktop/f48158ca7aeaac49277e614bb2183005.jpeg"/><text id="text4344" x="38.571" y="464.648" style="font-size:24px;font-style:normal;font-variant:normal;font-weight:400;font-stretch:normal;fill:#000;fill-opacity:1;stroke:none;stroke-width:1px;stroke-linecap:butt;stroke-linejoin:miter;stroke-opacity:1;font-family:Liberation Sans;-inkscape-font-specification:Liberation Sans" xml:space="preserve"><tspan style="font-weight:700" id="tspan4346" x="38.571" y="464.648">your music</tspan></text><text id="text4348" x="46.429" y="496.648" style="font-size:24px;font-style:normal;font-variant:normal;font-weight:400;font-stretch:normal;fill:#000;fill-opacity:1;stroke:none;stroke-width:1px;stroke-linecap:butt;stroke-linejoin:miter;stroke-opacity:1;font-family:Liberation Sans;-inkscape-font-specification:Liberation Sans" xml:space="preserve"><tspan id="tspan4350" x="46.429" y="496.648">albums:</tspan></text><text id="text4352" x="82.857" y="527.648" style="font-size:24px;font-style:normal;font-variant:normal;font-weight:400;font-stretch:normal;fill:#036;fill-opacity:1;stroke:none;stroke-width:1px;stroke-linecap:butt;stroke-linejoin:miter;stroke-opacity:1;font-family:Liberation Sans;-inkscape-font-specification:Liberation Sans" xml:space="preserve"><tspan id="tspan4354" x="82.857" y="527.648">* more mature escapades in hi-fi</tspan><tspan id="tspan4356" x="82.857" y="557.648">* another rock and roll halloween</tspan></text><g id="g4382" transform="translate(16,-70)"><rect id="rect4358" width="28.571" height="20.714" x="30.714" y="580.934" rx="20" ry="20" style="opacity:1;fill:#fdca01;fill-opacity:1;stroke:none;stroke-width:5;stroke-linecap:round;stroke-linejoin:round;stroke-miterlimit:4;stroke-dasharray:none;stroke-opacity:1"/><text id="text4360" x="32.331" y="594.648" style="font-size:10.50309277px;font-style:normal;font-variant:normal;font-weight:400;font-stretch:normal;fill:#000;fill-opacity:1;stroke:none;stroke-width:1px;stroke-linecap:butt;stroke-linejoin:miter;stroke-opacity:1;font-family:Liberation Sans;-inkscape-font-specification:Liberation Sans" xml:space="preserve"><tspan style="font-weight:700" id="tspan4362" x="32.331" y="594.648">NEW</tspan></text><rect style="opacity:1;fill:#fdca01;fill-opacity:1;stroke:none;stroke-width:5;stroke-linecap:round;stroke-linejoin:round;stroke-miterlimit:4;stroke-dasharray:none;stroke-opacity:1" id="rect4364" width="28.571" height="20.714" x="30.714" y="580.934" rx="20" ry="20"/><text xml:space="preserve" style="font-size:10.50309277px;font-style:normal;font-variant:normal;font-weight:400;font-stretch:normal;fill:#000;fill-opacity:1;stroke:none;stroke-width:1px;stroke-linecap:butt;stroke-linejoin:miter;stroke-opacity:1;font-family:Liberation Sans;-inkscape-font-specification:Liberation Sans" id="text4366" x="32.331" y="594.648"><tspan id="tspan4368" x="32.331" y="594.648" style="font-weight:700">NEW</tspan></text></g><g id="g4390" transform="translate(12.428571,-255.71429)"><rect style="opacity:1;fill:#fdca01;fill-opacity:1;stroke:none;stroke-width:5;stroke-linecap:round;stroke-linejoin:round;stroke-miterlimit:4;stroke-dasharray:none;stroke-opacity:1" id="rect4392" width="28.571" height="20.714" x="30.714" y="580.934" rx="20" ry="20"/><text xml:space="preserve" style="font-size:10.50309277px;font-style:normal;font-variant:normal;font-weight:400;font-stretch:normal;fill:#000;fill-opacity:1;stroke:none;stroke-width:1px;stroke-linecap:butt;stroke-linejoin:miter;stroke-opacity:1;font-family:Liberation Sans;-inkscape-font-specification:Liberation Sans" id="text4394" x="32.331" y="594.648"><tspan id="tspan4396" x="32.331" y="594.648" style="font-weight:700">NEW</tspan></text><rect id="rect4398" width="28.571" height="20.714" x="30.714" y="580.934" rx="20" ry="20" style="opacity:1;fill:#fdca01;fill-opacity:1;stroke:none;stroke-width:5;stroke-linecap:round;stroke-linejoin:round;stroke-miterlimit:4;stroke-dasharray:none;stroke-opacity:1"/><text id="text4400" x="32.331" y="594.648" style="font-size:10.50309277px;font-style:normal;font-variant:normal;font-weight:400;font-stretch:normal;fill:#000;fill-opacity:1;stroke:none;stroke-width:1px;stroke-linecap:butt;stroke-linejoin:miter;stroke-opacity:1;font-family:Liberation Sans;-inkscape-font-specification:Liberation Sans" xml:space="preserve"><tspan style="font-weight:700" id="tspan4402" x="32.331" y="594.648">NEW</tspan></text></g><g id="g4404" transform="translate(52.428571,-255.71429)"><rect id="rect4406" width="28.571" height="20.714" x="30.714" y="580.934" rx="20" ry="20" style="opacity:1;fill:#fdca01;fill-opacity:1;stroke:none;stroke-width:5;stroke-linecap:round;stroke-linejoin:round;stroke-miterlimit:4;stroke-dasharray:none;stroke-opacity:1"/><text id="text4408" x="32.331" y="594.648" style="font-size:10.50309277px;font-style:normal;font-variant:normal;font-weight:400;font-stretch:normal;fill:#000;fill-opacity:1;stroke:none;stroke-width:1px;stroke-linecap:butt;stroke-linejoin:miter;stroke-opacity:1;font-family:Liberation Sans;-inkscape-font-specification:Liberation Sans" xml:space="preserve"><tspan style="font-weight:700" id="tspan4410" x="32.331" y="594.648">NEW</tspan></text><rect style="opacity:1;fill:#fdca01;fill-opacity:1;stroke:none;stroke-width:5;stroke-linecap:round;stroke-linejoin:round;stroke-miterlimit:4;stroke-dasharray:none;stroke-opacity:1" id="rect4412" width="28.571" height="20.714" x="30.714" y="580.934" rx="20" ry="20"/><text xml:space="preserve" style="font-size:10.50309277px;font-style:normal;font-variant:normal;font-weight:400;font-stretch:normal;fill:#000;fill-opacity:1;stroke:none;stroke-width:1px;stroke-linecap:butt;stroke-linejoin:miter;stroke-opacity:1;font-family:Liberation Sans;-inkscape-font-specification:Liberation Sans" id="text4414" x="32.331" y="594.648"><tspan id="tspan4416" x="32.331" y="594.648" style="font-weight:700">NEW</tspan></text></g><g id="g4418" transform="translate(92.42857,-255.71429)"><rect style="opacity:1;fill:#fdca01;fill-opacity:1;stroke:none;stroke-width:5;stroke-linecap:round;stroke-linejoin:round;stroke-miterlimit:4;stroke-dasharray:none;stroke-opacity:1" id="rect4420" width="28.571" height="20.714" x="30.714" y="580.934" rx="20" ry="20"/><text xml:space="preserve" style="font-size:10.50309277px;font-style:normal;font-variant:normal;font-weight:400;font-stretch:normal;fill:#000;fill-opacity:1;stroke:none;stroke-width:1px;stroke-linecap:butt;stroke-linejoin:miter;stroke-opacity:1;font-family:Liberation Sans;-inkscape-font-specification:Liberation Sans" id="text4422" x="32.331" y="594.648"><tspan id="tspan4424" x="32.331" y="594.648" style="font-weight:700">NEW</tspan></text><rect id="rect4426" width="28.571" height="20.714" x="30.714" y="580.934" rx="20" ry="20" style="opacity:1;fill:#fdca01;fill-opacity:1;stroke:none;stroke-width:5;stroke-linecap:round;stroke-linejoin:round;stroke-miterlimit:4;stroke-dasharray:none;stroke-opacity:1"/><text id="text4428" x="32.331" y="594.648" style="font-size:10.50309277px;font-style:normal;font-variant:normal;font-weight:400;font-stretch:normal;fill:#000;fill-opacity:1;stroke:none;stroke-width:1px;stroke-linecap:butt;stroke-linejoin:miter;stroke-opacity:1;font-family:Liberation Sans;-inkscape-font-specification:Liberation Sans" xml:space="preserve"><tspan style="font-weight:700" id="tspan4430" x="32.331" y="594.648">NEW</tspan></text></g></g></svg>