<svg xmlns="http://www.w3.org/2000/svg" xmlns:svg="http://www.w3.org/2000/svg" xmlns:xlink="http://www.w3.org/1999/xlink" id="svg3077" width="48" height="48"><defs id="defs3"><linearGradient id="linearGradient4623"><stop style="stop-color:#888a85;stop-opacity:1" id="stop4625" offset="0"/><stop style="stop-color:#888a85;stop-opacity:0" id="stop4627" offset="1"/></linearGradient><linearGradient id="linearGradient4452"><stop style="stop-color:#888a85;stop-opacity:1" id="stop4454" offset="0"/><stop style="stop-color:#888a85;stop-opacity:0" id="stop4456" offset="1"/></linearGradient><linearGradient id="linearGradient4428"><stop style="stop-color:#eeeeec;stop-opacity:1" id="stop4430" offset="0"/><stop style="stop-color:#ad7fa8;stop-opacity:0" id="stop4432" offset="1"/></linearGradient><linearGradient id="linearGradient4420"><stop style="stop-color:#729fcf;stop-opacity:1" id="stop4422" offset="0"/><stop style="stop-color:#729fcf;stop-opacity:0" id="stop4424" offset="1"/></linearGradient><linearGradient id="linearGradient4401"><stop style="stop-color:#eeeeec;stop-opacity:1" id="stop4403" offset="0"/><stop style="stop-color:#eeeeec;stop-opacity:0" id="stop4405" offset="1"/></linearGradient><linearGradient id="linearGradient23419"><stop style="stop-color:#000;stop-opacity:1" id="stop23421" offset="0"/><stop style="stop-color:#000;stop-opacity:0" id="stop23423" offset="1"/></linearGradient><linearGradient id="linearGradient3435" x1="12.274" x2="35.391" y1="32.416" y2="14.203" gradientUnits="userSpaceOnUse"><stop offset="0" style="stop-color:#ffffc8;stop-opacity:1" id="stop3437"/><stop offset="1" style="stop-color:#9a91ef;stop-opacity:0" id="stop3439"/></linearGradient><linearGradient id="linearGradient3421" x1="12.274" x2="35.391" y1="32.416" y2="14.203" gradientUnits="userSpaceOnUse"><stop id="stop3423" style="stop-color:#fff;stop-opacity:1" offset="0"/><stop id="stop3427" style="stop-color:#b8c04c;stop-opacity:0" offset="1"/></linearGradient><linearGradient id="linearGradient3406" x1="12.274" x2="35.391" y1="32.416" y2="14.203" gradientUnits="userSpaceOnUse"><stop offset="0" style="stop-color:#b307ff;stop-opacity:.82178217" id="stop3408"/><stop offset="1" style="stop-color:#f0ff8b;stop-opacity:.64356434" id="stop3410"/><stop offset="1" style="stop-color:#fff;stop-opacity:0" id="stop3412"/></linearGradient><linearGradient id="linearGradient3394" x1="12.274" x2="35.391" y1="32.416" y2="14.203" gradientUnits="userSpaceOnUse"><stop id="stop3396" style="stop-color:#fff307;stop-opacity:1" offset="0"/><stop id="stop3398" style="stop-color:#166eff;stop-opacity:1" offset=".5"/><stop id="stop3400" style="stop-color:#fff;stop-opacity:0" offset="1"/></linearGradient><linearGradient id="linearGradient6036"><stop style="stop-color:#fff;stop-opacity:1" id="stop6038" offset="0"/><stop style="stop-color:#fff;stop-opacity:0" id="stop6040" offset="1"/></linearGradient><linearGradient id="linearGradient6028"><stop style="stop-color:#fff;stop-opacity:1" id="stop6030" offset="0"/><stop style="stop-color:#fff;stop-opacity:0" id="stop6032" offset="1"/></linearGradient><linearGradient id="linearGradient4236"><stop style="stop-color:#fff;stop-opacity:.32673267" id="stop4238" offset="0"/><stop style="stop-color:#fff;stop-opacity:.60396039" id="stop4240" offset="1"/></linearGradient><linearGradient id="aigrd2" x1="12.274" x2="35.391" y1="32.416" y2="14.203" gradientUnits="userSpaceOnUse"><stop offset="0" style="stop-color:#fbfbfb" id="stop3043"/><stop offset=".5" style="stop-color:#b6b6b6" id="stop3045"/><stop offset="1" style="stop-color:#e4e4e4" id="stop3047"/></linearGradient><linearGradient id="aigrd1" x1="14.997" x2="32.511" y1="11.188" y2="34.307" gradientUnits="userSpaceOnUse"><stop offset="0" style="stop-color:#ebebeb" id="stop3034"/><stop offset=".5" style="stop-color:#fff" id="stop3036"/><stop offset="1" style="stop-color:#ebebeb" id="stop3038"/></linearGradient><radialGradient id="radialGradient23425" cx="23.335" cy="41.636" r="22.627" fx="23.335" fy="41.636" gradientTransform="matrix(1,0,0,0.25,0,31.22703)" gradientUnits="userSpaceOnUse" xlink:href="#linearGradient23419"/><linearGradient id="linearGradient4292" x1="14.997" x2="32.511" y1="11.188" y2="34.307" gradientTransform="matrix(1.190476,0,0,1.190476,-71.52683,-17.61612)" gradientUnits="userSpaceOnUse" xlink:href="#aigrd1"/><linearGradient id="linearGradient4294" x1="12.274" x2="35.391" y1="32.416" y2="14.203" gradientTransform="matrix(1.190476,0,0,1.190476,-71.52683,-17.61612)" gradientUnits="userSpaceOnUse" xlink:href="#aigrd2"/><linearGradient id="linearGradient4296" x1="21.125" x2="29" y1="14.625" y2="28" gradientTransform="matrix(1.25,0,0,1.25,-72.9554,-17.72028)" gradientUnits="userSpaceOnUse" xlink:href="#linearGradient4236"/><linearGradient id="linearGradient4298" x1="21.125" x2="29" y1="14.625" y2="28" gradientTransform="matrix(1.25,0,0,1.25,-72.9554,-17.72028)" gradientUnits="userSpaceOnUse" xlink:href="#linearGradient4236"/><linearGradient id="linearGradient4300" x1="10.502" x2="48.799" y1="3.61" y2="54.698" gradientTransform="translate(-67.30241,-15.11612)" gradientUnits="userSpaceOnUse" xlink:href="#linearGradient6036"/><linearGradient id="linearGradient4302" x1="28.703" x2="17.743" y1="31.495" y2="18.367" gradientUnits="userSpaceOnUse" xlink:href="#linearGradient6028"/><radialGradient id="radialGradient4304" cx="37.751" cy="27.569" r="21.333" fx="37.751" fy="27.569" gradientTransform="matrix(0.848684,0.95802,-0.782119,0.692834,-48.61094,-35.6419)" gradientUnits="userSpaceOnUse" xlink:href="#linearGradient3394"/><radialGradient id="radialGradient4306" cx="26.138" cy="38.807" r="21.333" fx="26.138" fy="38.807" gradientTransform="matrix(0.769501,-1.2425,0.6703,0.415141,-89.08101,26.24951)" gradientUnits="userSpaceOnUse" xlink:href="#linearGradient3406"/><radialGradient id="radialGradient4308" cx="53.557" cy="48.238" r="21.333" fx="53.557" fy="48.238" gradientTransform="matrix(0.15845,-0.158988,0.432907,0.431441,-70.02605,-0.115047)" gradientUnits="userSpaceOnUse" xlink:href="#linearGradient3421"/><radialGradient id="radialGradient4310" cx="16.885" cy="33.378" r="21.333" fx="16.885" fy="33.378" gradientTransform="matrix(5.184267e-3,-0.12286,0.544548,2.297824e-2,-66.34518,11.19144)" gradientUnits="userSpaceOnUse" xlink:href="#linearGradient3435"/><radialGradient id="radialGradient4312" cx="35.511" cy="21.618" r="21.333" fx="35.511" fy="21.618" gradientTransform="matrix(0.105916,-1.91424e-2,0.104789,0.579807,-50.16548,-8.000959)" gradientUnits="userSpaceOnUse" xlink:href="#linearGradient3435"/><radialGradient id="radialGradient4314" cx="133.841" cy="23.914" r="21.333" fx="133.841" fy="23.914" gradientTransform="matrix(-5.04822e-2,1.387847e-2,-0.12844,-0.467196,-31.88984,24.3256)" gradientUnits="userSpaceOnUse" xlink:href="#linearGradient3435"/><radialGradient id="radialGradient4365" cx="10.936" cy="31.07" r="7.448" fx="10.936" fy="31.07" gradientTransform="matrix(0.482928,3.885323e-2,-0.143595,1.606302,9.779125,-18.08456)" gradientUnits="userSpaceOnUse" xlink:href="#linearGradient6036"/><radialGradient id="radialGradient4407" cx="10.173" cy="7.938" r="5.232" fx="10.173" fy="7.938" gradientTransform="matrix(1.381742,1.422698,-1.000931,0.891366,3.744765,-13.94369)" gradientUnits="userSpaceOnUse" xlink:href="#linearGradient4401"/><radialGradient id="radialGradient4426" cx="36.004" cy="42.525" r="5.341" fx="36.004" fy="42.525" gradientTransform="matrix(0.847481,-0.205074,0.48358,1.798528,-14.84867,-25.28409)" gradientUnits="userSpaceOnUse" xlink:href="#linearGradient4420"/><radialGradient id="radialGradient4434" cx="37.342" cy="16.156" r="5.952" fx="37.342" fy="16.156" gradientTransform="matrix(1,0,0,1.667014,0.505147,-13.1019)" gradientUnits="userSpaceOnUse" xlink:href="#linearGradient4428"/><linearGradient id="linearGradient4458" x1="37.289" x2="37.281" y1="2.868" y2="2.096" gradientTransform="matrix(1,0,0,0.672613,0,1.682891)" gradientUnits="userSpaceOnUse" xlink:href="#linearGradient4452"/><linearGradient id="linearGradient4466" x1="37.289" x2="37.315" y1="2.868" y2="2.096" gradientTransform="matrix(-0.860177,0,0,0.672613,45.32049,1.789384)" gradientUnits="userSpaceOnUse" xlink:href="#linearGradient4452"/><radialGradient id="radialGradient4605" cx="23.335" cy="41.636" r="22.627" fx="23.335" fy="41.636" gradientTransform="matrix(1,0,0,0.25,0,31.22703)" gradientUnits="userSpaceOnUse" xlink:href="#linearGradient23419"/><radialGradient id="radialGradient4629" cx="92.223" cy="-47.475" r=".234" fx="92.223" fy="-47.475" gradientTransform="matrix(1.405467,0.575716,-0.698805,1.380855,-70.56949,-34.99677)" gradientUnits="userSpaceOnUse" xlink:href="#linearGradient4623"/><radialGradient id="radialGradient1988" cx="23.335" cy="41.636" r="22.627" fx="23.335" fy="41.636" gradientTransform="matrix(1,0,0,0.25,0,31.22703)" gradientUnits="userSpaceOnUse" xlink:href="#linearGradient23419"/></defs><metadata id="metadata4"/><g id="layer1"><path style="opacity:.33146069;color:#000;fill:url(#radialGradient1988);fill-opacity:1;fill-rule:evenodd;stroke:none;stroke-width:2;stroke-linecap:butt;stroke-linejoin:miter;marker:none;marker-start:none;marker-mid:none;marker-end:none;stroke-miterlimit:4;stroke-dasharray:none;stroke-dashoffset:0;stroke-opacity:1;visibility:visible;display:inline;overflow:visible" id="path1986" d="M 45.893261 41.63604 A 22.558737 5.6568542 0 1 1 0.77578735,41.63604 A 22.558737 5.6568542 0 1 1 45.893261 41.63604 z" transform="matrix(0.129981,0.103616,-0.5612,0.268864,26.58925,18.51054)"/><path id="path4603" d="M 45.961941 41.63604 A 22.627417 5.6568542 0 1 1 0.70710754,41.63604 A 22.627417 5.6568542 0 1 1 45.961941 41.63604 z" transform="matrix(0.988381,2.280278e-2,0,0.675773,2.525222,2.657421)" style="opacity:1;color:#000;fill:url(#radialGradient4605);fill-opacity:1;fill-rule:evenodd;stroke:none;stroke-width:2;stroke-linecap:butt;stroke-linejoin:miter;marker:none;marker-start:none;marker-mid:none;marker-end:none;stroke-miterlimit:4;stroke-dasharray:none;stroke-dashoffset:0;stroke-opacity:1;visibility:visible;display:inline;overflow:visible"/><path style="opacity:.33146069;color:#000;fill:url(#radialGradient23425);fill-opacity:1;fill-rule:evenodd;stroke:none;stroke-width:2;stroke-linecap:butt;stroke-linejoin:miter;marker:none;marker-start:none;marker-mid:none;marker-end:none;stroke-miterlimit:4;stroke-dasharray:none;stroke-dashoffset:0;stroke-opacity:1;visibility:visible;display:inline;overflow:visible" id="path23417" d="M 45.893261 41.63604 A 22.558737 5.6568542 0 1 1 0.77578735,41.63604 A 22.558737 5.6568542 0 1 1 45.893261 41.63604 z" transform="matrix(0.903955,0.343558,2.8045e-2,0.891465,-5.675046e-2,-7.309531)"/><path style="fill:#eeeeec;fill-opacity:1;fill-rule:evenodd;stroke:#babdb6;stroke-width:.99999964;stroke-linecap:butt;stroke-linejoin:round;stroke-miterlimit:4;stroke-dasharray:none;stroke-opacity:1" id="path4318" d="M 38.802485,44.124906 L 37.830213,45.718084 L 5.3232208,31.518327 L 6.301098,30.350715 L 38.802485,44.124906 z"/><path id="path3311" d="M 6.5498913,30.647672 L 41.326175,30.647672 L 43.339294,2.5694122 L 4.358146,2.5694122 L 6.5498913,30.647672 z" style="fill:#555753;fill-opacity:1;fill-rule:evenodd;stroke:#2e3436;stroke-width:.99999964;stroke-linecap:butt;stroke-linejoin:round;stroke-miterlimit:4;stroke-dasharray:none;stroke-opacity:1"/><g id="g4277" transform="matrix(0.751892,0,0,0.651612,57.58268,10.96845)"><path style="fill:url(#linearGradient4292);fill-rule:nonzero;stroke:none;stroke-miterlimit:4" id="path3040" d="M -42.955402,-10.94945 C -54.503022,-10.94945 -63.788736,-1.6637354 -63.788736,9.8838836 C -63.788736,21.431503 -54.503022,30.717218 -42.955402,30.717218 C -31.407782,30.717218 -22.122067,21.431503 -22.122067,9.8838836 C -22.122067,-1.6637354 -31.407782,-10.94945 -42.955402,-10.94945 L -42.955402,-10.94945 z M -42.955402,14.883884 C -45.693497,14.883884 -47.955402,12.621979 -47.955402,9.8838836 C -47.955402,7.1457886 -45.693497,4.8838836 -42.955402,4.8838836 C -40.217307,4.8838836 -37.955402,7.1457886 -37.955402,9.8838836 C -37.955402,12.621979 -40.217307,14.883884 -42.955402,14.883884 z"/><path style="fill:url(#linearGradient4294);fill-rule:nonzero;stroke:gray;stroke-width:1.42865634;stroke-miterlimit:4;stroke-opacity:1" id="path3049" d="M -42.955402,-10.94945 C -54.503022,-10.94945 -63.788736,-1.6637354 -63.788736,9.8838836 C -63.788736,21.431503 -54.503022,30.717218 -42.955402,30.717218 C -31.407782,30.717218 -22.122067,21.431503 -22.122067,9.8838836 C -22.122067,-1.6637354 -31.407782,-10.94945 -42.955402,-10.94945 L -42.955402,-10.94945 z M -42.955402,14.883884 C -45.693497,14.883884 -47.955402,12.621979 -47.955402,9.8838836 C -47.955402,7.1457886 -45.693497,4.8838836 -42.955402,4.8838836 C -40.217307,4.8838836 -37.955402,7.1457886 -37.955402,9.8838836 C -37.955402,12.621979 -40.217307,14.883884 -42.955402,14.883884 z"/><path style="opacity:.10999995;fill-rule:nonzero;stroke:none;stroke-miterlimit:4" id="path3051" d="M -42.955402,-0.22028143 C -48.597988,-0.22028143 -53.059568,4.3725216 -53.059568,9.8838836 C -53.059568,15.526471 -48.466764,19.988049 -42.955402,19.988049 C -37.312816,19.988049 -32.851236,15.395247 -32.851236,9.8838836 C -32.851236,4.2412976 -37.44404,-0.22028143 -42.955402,-0.22028143 L -42.955402,-0.22028143 z M -42.955402,15.395247 C -45.973529,15.395247 -48.466764,12.902012 -48.466764,9.8838836 C -48.466764,6.8657566 -45.973529,4.3725216 -42.955402,4.3725216 C -39.937275,4.3725216 -37.44404,6.8657566 -37.44404,9.8838836 C -37.44404,12.902012 -39.937275,15.395247 -42.955402,15.395247 z"/><path id="path3916" d="M -37.380297,-9.4468825 L -40.97689,4.5477796 C -39.852186,4.8472966 -38.952747,5.5432496 -38.341762,6.5063216 L -25.949542,-1.0429634 C -28.48479,-5.1726782 -32.553752,-8.2110311 -37.380297,-9.4468825 z" style="fill:url(#linearGradient4296);fill-opacity:1;fill-rule:nonzero;stroke:none;stroke-miterlimit:4;stroke-opacity:1"/><path style="fill:url(#linearGradient4298);fill-opacity:1;fill-rule:nonzero;stroke:none;stroke-miterlimit:4;stroke-opacity:1" id="path4214" d="M -49.994584,28.64994 L -45.259329,14.998441 C -46.355593,14.607449 -47.194754,13.839888 -47.724472,12.829834 L -60.695533,19.334482 C -58.508475,23.658694 -54.703153,27.021365 -49.994584,28.64994 z"/><path id="path5264" d="M -42.955406,-9.9137505 C -53.92895,-9.9137505 -62.753037,-1.0896624 -62.753037,9.8838806 C -62.753037,20.857424 -53.92895,29.681511 -42.955406,29.681511 C -31.981862,29.681511 -23.157775,20.857424 -23.157775,9.8838806 C -23.157775,-1.0896624 -31.981862,-9.9137505 -42.955406,-9.9137505 L -42.955406,-9.9137505 z" style="opacity:.54644811;fill:none;fill-rule:nonzero;stroke:url(#linearGradient4300);stroke-width:1.42865634;stroke-miterlimit:4;stroke-opacity:1"/><path id="path6026" d="M 30.405591 24.930641 A 6.0987959 6.0987959 0 1 1 18.207999,24.930641 A 6.0987959 6.0987959 0 1 1 30.405591 24.930641 z" transform="translate(-67.21402,-15.02773)" style="opacity:.67213111;color:#000;fill:none;fill-opacity:.31638417;fill-rule:nonzero;stroke:url(#linearGradient4302);stroke-width:1.32941985;stroke-linecap:butt;stroke-linejoin:miter;marker:none;marker-start:none;marker-mid:none;marker-end:none;stroke-miterlimit:4;stroke-dashoffset:0;stroke-opacity:1;visibility:visible;display:inline;overflow:visible"/><path id="path3390" d="M -42.955402,-10.94945 C -54.503022,-10.94945 -63.788736,-1.6637354 -63.788736,9.8838836 C -63.788736,21.431503 -54.503022,30.717218 -42.955402,30.717218 C -31.407782,30.717218 -22.122067,21.431503 -22.122067,9.8838836 C -22.122067,-1.6637354 -31.407782,-10.94945 -42.955402,-10.94945 L -42.955402,-10.94945 z M -42.955402,14.883884 C -45.693497,14.883884 -47.955402,12.621979 -47.955402,9.8838836 C -47.955402,7.1457886 -45.693497,4.8838836 -42.955402,4.8838836 C -40.217307,4.8838836 -37.955402,7.1457886 -37.955402,9.8838836 C -37.955402,12.621979 -40.217307,14.883884 -42.955402,14.883884 z" style="opacity:.1142857;fill:url(#radialGradient4304);fill-opacity:1;fill-rule:nonzero;stroke:none;stroke-miterlimit:4;stroke-opacity:1"/><path style="opacity:.09714284;fill:url(#radialGradient4306);fill-opacity:1;fill-rule:nonzero;stroke:none;stroke-miterlimit:4;stroke-opacity:1" id="path3404" d="M -42.955402,-10.94945 C -54.503022,-10.94945 -63.788736,-1.6637354 -63.788736,9.8838836 C -63.788736,21.431503 -54.503022,30.717218 -42.955402,30.717218 C -31.407782,30.717218 -22.122067,21.431503 -22.122067,9.8838836 C -22.122067,-1.6637354 -31.407782,-10.94945 -42.955402,-10.94945 L -42.955402,-10.94945 z M -42.955402,14.883884 C -45.693497,14.883884 -47.955402,12.621979 -47.955402,9.8838836 C -47.955402,7.1457886 -45.693497,4.8838836 -42.955402,4.8838836 C -40.217307,4.8838836 -37.955402,7.1457886 -37.955402,9.8838836 C -37.955402,12.621979 -40.217307,14.883884 -42.955402,14.883884 z"/><path id="path3419" d="M -42.955402,-10.94945 C -54.503022,-10.94945 -63.788736,-1.6637354 -63.788736,9.8838836 C -63.788736,21.431503 -54.503022,30.717218 -42.955402,30.717218 C -31.407782,30.717218 -22.122067,21.431503 -22.122067,9.8838836 C -22.122067,-1.6637354 -31.407782,-10.94945 -42.955402,-10.94945 L -42.955402,-10.94945 z M -42.955402,14.883884 C -45.693497,14.883884 -47.955402,12.621979 -47.955402,9.8838836 C -47.955402,7.1457886 -45.693497,4.8838836 -42.955402,4.8838836 C -40.217307,4.8838836 -37.955402,7.1457886 -37.955402,9.8838836 C -37.955402,12.621979 -40.217307,14.883884 -42.955402,14.883884 z" style="opacity:.71428576;fill:url(#radialGradient4308);fill-opacity:1;fill-rule:nonzero;stroke:none;stroke-miterlimit:4;stroke-opacity:1"/><path style="opacity:.62285713;fill:url(#radialGradient4310);fill-opacity:1;fill-rule:nonzero;stroke:none;stroke-miterlimit:4;stroke-opacity:1" id="path3431" d="M -42.955402,-10.94945 C -54.503022,-10.94945 -63.788736,-1.6637354 -63.788736,9.8838836 C -63.788736,21.431503 -54.503022,30.717218 -42.955402,30.717218 C -31.407782,30.717218 -22.122067,21.431503 -22.122067,9.8838836 C -22.122067,-1.6637354 -31.407782,-10.94945 -42.955402,-10.94945 L -42.955402,-10.94945 z M -42.955402,14.883884 C -45.693497,14.883884 -47.955402,12.621979 -47.955402,9.8838836 C -47.955402,7.1457886 -45.693497,4.8838836 -42.955402,4.8838836 C -40.217307,4.8838836 -37.955402,7.1457886 -37.955402,9.8838836 C -37.955402,12.621979 -40.217307,14.883884 -42.955402,14.883884 z"/><path id="path3441" d="M -42.955402,-10.94945 C -54.503022,-10.94945 -63.788736,-1.6637354 -63.788736,9.8838836 C -63.788736,21.431503 -54.503022,30.717218 -42.955402,30.717218 C -31.407782,30.717218 -22.122067,21.431503 -22.122067,9.8838836 C -22.122067,-1.6637354 -31.407782,-10.94945 -42.955402,-10.94945 L -42.955402,-10.94945 z M -42.955402,14.883884 C -45.693497,14.883884 -47.955402,12.621979 -47.955402,9.8838836 C -47.955402,7.1457886 -45.693497,4.8838836 -42.955402,4.8838836 C -40.217307,4.8838836 -37.955402,7.1457886 -37.955402,9.8838836 C -37.955402,12.621979 -40.217307,14.883884 -42.955402,14.883884 z" style="opacity:.37142861;fill:url(#radialGradient4312);fill-opacity:1;fill-rule:nonzero;stroke:none;stroke-miterlimit:4;stroke-opacity:1"/><path style="opacity:.23428572;fill:url(#radialGradient4314);fill-opacity:1;fill-rule:nonzero;stroke:none;stroke-miterlimit:4;stroke-opacity:1" id="path3445" d="M -42.955402,-10.94945 C -54.503022,-10.94945 -63.788736,-1.6637354 -63.788736,9.8838836 C -63.788736,21.431503 -54.503022,30.717218 -42.955402,30.717218 C -31.407782,30.717218 -22.122067,21.431503 -22.122067,9.8838836 C -22.122067,-1.6637354 -31.407782,-10.94945 -42.955402,-10.94945 L -42.955402,-10.94945 z M -42.955402,14.883884 C -45.693497,14.883884 -47.955402,12.621979 -47.955402,9.8838836 C -47.955402,7.1457886 -45.693497,4.8838836 -42.955402,4.8838836 C -40.217307,4.8838836 -37.955402,7.1457886 -37.955402,9.8838836 C -37.955402,12.621979 -40.217307,14.883884 -42.955402,14.883884 z"/></g><path style="fill:#555753;fill-opacity:1;fill-rule:evenodd;stroke:#2e3436;stroke-width:.99999964;stroke-linecap:butt;stroke-linejoin:round;stroke-miterlimit:4;stroke-dasharray:none;stroke-opacity:1" id="path4332" d="M 43.029653,2.7781408 L 30.036566,2.7781408 L 30.228815,3.6246195 C 30.228815,3.6246195 42.382213,6.7900143 41.896077,17.96323 C 41.409941,29.220297 30.798484,31.174451 30.798484,31.174451 L 41.702189,31.217838 L 41.807688,31.71488 L 43.84062,3.6246195 L 43.029653,2.7781408 z"/><path style="fill:#555753;fill-opacity:1;fill-rule:evenodd;stroke:#2e3436;stroke-width:.99999964;stroke-linecap:butt;stroke-linejoin:round;stroke-miterlimit:4;stroke-dasharray:none;stroke-opacity:1" id="path4460" d="M 6.0617664,31.73142 L 9.373287,31.678174 L 9.4294145,31.198955 L 19.644613,31.145708 C 19.644613,31.145708 9.4013505,28.336953 8.7558849,18.047059 C 8.1104193,7.7039187 19.532359,3.6172472 19.532359,3.6172472 L 19.700741,2.6055628 L 4.6585798,2.6055629 L 3.8727952,3.4575076 L 6.0617664,31.73142 z"/><path id="path4464" d="M 18.724475,3.0957476 L 8.2883053,3.199322 L 8.0382993,3.6758327 C 8.0382993,3.6758327 17.887911,3.7813129 17.934787,3.7568764 C 17.981664,3.7324399 18.569815,3.4192501 18.866698,3.3215043 C 19.163581,3.2237584 18.798457,3.1523548 18.724475,3.0957476 z" style="fill:url(#linearGradient4466);fill-opacity:1;fill-rule:evenodd;stroke:none;stroke-width:.25pt;stroke-linecap:butt;stroke-linejoin:miter;stroke-opacity:1"/><path style="fill:#2e3436;fill-opacity:.75;fill-rule:evenodd;stroke:none;stroke-width:.25pt;stroke-linecap:butt;stroke-linejoin:miter;stroke-opacity:1" id="path4462" d="M 8.8681398,31.784686 L 9.5416694,31.09248 L 7.3526982,2.4990711 L 6.7352961,2.6055642 L 8.8681398,31.784686 z"/><g id="g4585" transform="matrix(1,0,0,0.948672,3.739989,3.139961)"><path id="path4489" d="M 25.286004 17.17557 A 0.032515224 2.9372084 0 1 1 25.220973,17.17557 A 0.032515224 2.9372084 0 1 1 25.286004 17.17557 z" transform="matrix(99.66666,0,0,0.992191,-2495.288,-1.842986)" style="opacity:1;fill:#555753;fill-opacity:1;stroke:none;stroke-width:.40000001;stroke-linecap:round;stroke-linejoin:miter;stroke-miterlimit:4;stroke-dasharray:none;stroke-dashoffset:0;stroke-opacity:1"/><path id="path4474" d="M 22.02833,14.787463 L 23.033644,13.685554 M 20.273948,16.689852 L 21.258989,15.653691" style="fill:#2e3436;fill-opacity:.75;fill-rule:evenodd;stroke:#2e3436;stroke-width:.41067854;stroke-linecap:round;stroke-linejoin:miter;stroke-miterlimit:4;stroke-dasharray:none;stroke-opacity:1"/><path style="fill:#2e3436;fill-opacity:.75;fill-rule:evenodd;stroke:#2e3436;stroke-width:.41067854;stroke-linecap:round;stroke-linejoin:miter;stroke-miterlimit:4;stroke-dasharray:none;stroke-opacity:1" id="path4485" d="M 22.191832,15.275256 L 23.681792,15.511897 M 19.669153,14.91233 L 21.024988,15.081918"/><path id="path4487" d="M 21.86607,15.714554 L 22.285687,17.092161 M 20.978551,13.312538 L 21.436053,14.664751" style="fill:#2e3436;fill-opacity:.75;fill-rule:evenodd;stroke:#2e3436;stroke-width:.41067854;stroke-linecap:round;stroke-linejoin:miter;stroke-miterlimit:4;stroke-dasharray:none;stroke-opacity:1"/><path id="path4499" d="M 21.198562,13.955481 C 20.982043,14.015832 20.873411,13.877366 20.804693,13.780445 L 20.136399,12.665506 C 20.136399,12.665506 20.384913,12.537625 20.726323,12.446217 C 21.067733,12.354809 21.382815,12.348701 21.382815,12.348701 L 21.434849,13.690847 C 21.447845,13.774314 21.418364,13.894217 21.198562,13.955481 z" style="fill:#2e3436;fill-opacity:1;fill-rule:evenodd;stroke:none;stroke-width:.25pt;stroke-linecap:butt;stroke-linejoin:miter;stroke-opacity:1"/><use id="use4523" width="48" height="48" x="0" y="0" transform="matrix(-1,0,0,-1,43.32922,30.3955)" xlink:href="#path4499"/><use id="use4533" width="48" height="48" x="0" y="0" transform="matrix(0.882543,0.423639,-0.52195,0.882543,10.47522,-7.385998)" xlink:href="#path4499"/><use id="use4535" width="48" height="48" x="0" y="0" transform="matrix(0.882543,0.423639,-0.52195,0.882543,10.47904,-7.399771)" xlink:href="#use4523"/><use id="use4537" width="48" height="48" x="0" y="0" transform="matrix(0.529188,0.76443,-0.941825,0.529188,24.50813,-9.400688)" xlink:href="#path4499"/><use id="use4539" width="48" height="48" x="0" y="0" transform="matrix(0.529188,0.76443,-0.941825,0.529188,24.51908,-9.410888)" xlink:href="#use4523"/><use id="use4541" width="48" height="48" x="0" y="0" transform="matrix(3.403775e-2,0.900393,-1.109342,3.403775e-2,37.7791,-4.824278)" xlink:href="#path4499"/><use id="use4543" width="48" height="48" x="0" y="0" transform="matrix(3.403775e-2,0.900393,-1.109342,3.403775e-2,37.79425,-4.828188)" xlink:href="#use4523"/><use id="use4545" width="48" height="48" x="0" y="0" transform="matrix(-0.470233,0.795096,-0.979609,-0.470233,46.73221,5.117049)" xlink:href="#path4499"/><use id="use4547" width="48" height="48" x="0" y="0" transform="matrix(-0.470233,0.795096,-0.979609,-0.470233,46.7475,5.120499)" xlink:href="#use4523"/><use id="use4549" width="48" height="48" x="0" y="0" transform="matrix(-0.848505,0.476752,-0.587391,-0.848505,48.96846,17.75954)" xlink:href="#path4499"/><use id="use4551" width="48" height="48" x="0" y="0" transform="matrix(-0.848505,0.476752,-0.587391,-0.848505,48.9798,17.7694)" xlink:href="#use4523"/></g><path style="fill:#eeeeec;fill-opacity:.53072623;fill-rule:evenodd;stroke:#babdb6;stroke-width:.99999964;stroke-linecap:butt;stroke-linejoin:round;stroke-miterlimit:4;stroke-dasharray:none;stroke-opacity:1" id="path4316" d="M 6.5407377,3.876174 L 8.4096557,32.430772 L 37.830213,45.718084 L 39.863145,12.093624 L 6.5407377,3.876174 z"/><path style="fill:#eeeeec;fill-opacity:1;fill-rule:evenodd;stroke:#babdb6;stroke-width:.99999964;stroke-linecap:butt;stroke-linejoin:round;stroke-miterlimit:4;stroke-dasharray:none;stroke-opacity:1" id="path4275" d="M 3.2620499,3.035938 L 39.964687,12.08348 L 41.157199,11.015367 L 4.8520557,2.2819763 L 3.2620499,3.035938 z"/><path style="fill:url(#linearGradient4458);fill-opacity:1;fill-rule:evenodd;stroke:none;stroke-width:.25pt;stroke-linecap:butt;stroke-linejoin:miter;stroke-opacity:1" id="path4335" d="M 30.790233,3.0928289 L 42.711515,3.1224216 L 43.32768,3.7542939 C 43.32768,3.7542939 32.195041,3.7561996 32.140545,3.7317632 C 32.086049,3.7073267 31.002868,3.3275533 30.657727,3.2298075 C 30.312585,3.1320616 30.790233,3.1050471 30.790233,3.0928289 z"/><path style="opacity:.16853931;fill:url(#radialGradient4426);fill-opacity:1;fill-rule:evenodd;stroke:none;stroke-width:.25pt;stroke-linecap:butt;stroke-linejoin:miter;stroke-opacity:1" id="path4337" d="M 27.472505,40.684343 L 37.354444,45.227271 L 38.153718,30.635069 L 37.572427,30.547341 L 27.472505,40.684343 z"/><path id="path4355" d="M 20.37171,37.272429 L 8.8487475,32.132083 L 8.0192873,16.263002 L 8.8904575,18.476282 L 20.37171,37.272429 z" style="opacity:.74157302;fill:url(#radialGradient4365);fill-opacity:1;fill-rule:evenodd;stroke:none;stroke-width:.25pt;stroke-linecap:butt;stroke-linejoin:miter;stroke-opacity:1"/><path id="path4367" d="M 27.680483,9.0783498 L 39.584534,12.195244 L 38.473694,28.922561 L 35.747222,27.435952 L 27.680483,9.0783498 z" style="opacity:.61797755;fill:url(#radialGradient4434);fill-opacity:1;fill-rule:evenodd;stroke:none;stroke-width:.25pt;stroke-linecap:butt;stroke-linejoin:miter;stroke-opacity:1"/><path style="fill:url(#radialGradient4407);fill-opacity:1;fill-rule:evenodd;stroke:none;stroke-width:.25pt;stroke-linecap:butt;stroke-linejoin:miter;stroke-opacity:1" id="path4399" d="M 6.9789685,4.4042882 L 18.171855,7.1582006 L 8.0671658,18.09942 L 6.9789685,4.4042882 z"/><path style="opacity:1;fill:url(#radialGradient4629);fill-opacity:1;stroke:none;stroke-width:.03583033;stroke-miterlimit:4;stroke-dasharray:none;stroke-dashoffset:0;stroke-opacity:1" id="path3319" d="M 92.577782 -47.368439 A 0.23405507 0.19804659 0 1 1 92.109672,-47.368439 A 0.23405507 0.19804659 0 1 1 92.577782 -47.368439 z" transform="matrix(3.211811,0,-0.443887,1.817612,-312.5037,89.01838)"/></g></svg>